<svg xmlns="http://www.w3.org/2000/svg" viewBox="0 0 512 512">
  <path d="M437 0H257c-41.4 0-75 33.6-75 75v90c0 41.4 33.6 75 75 75h15v45c0 6.1 3.6 11.5 9.3 13.9 5.5 2.3 12 1.1 16.3-3.3L353.2 240H437c41.4 0 75-33.6 75-75V75C512 33.6 478.4 0 437 0zM282.6 139.4c5.9 5.9 5.9 15.4 0 21.2 -5.9 5.9-15.4 5.9-21.2 0l-30-30c-5.9-5.9-5.9-15.4 0-21.2l30-30c5.9-5.9 15.4-5.9 21.2 0s5.9 15.4 0 21.2L263.2 120 282.6 139.4zM376.5 63.6l-30 120c-2 8.1-10.2 12.9-18.2 10.9 -8-2-12.9-10.2-10.9-18.2l30-120c2-8.1 10.1-13 18.2-10.9C373.7 47.5 378.6 55.6 376.5 63.6zM462.6 130.6l-30 30c-5.9 5.9-15.4 5.9-21.2 0s-5.9-15.4 0-21.2L430.8 120l-19.4-19.4c-5.9-5.9-5.9-15.4 0-21.2s15.4-5.9 21.2 0l30 30C468.5 115.3 468.5 124.7 462.6 130.6z"/>
  <path d="M220.8 330c-23.1 18.5-52 30-83.8 30s-62.7-11.5-85.8-30C20.2 354.8 0 392.4 0 435v62c0 8.3 6.7 15 15 15h242c8.3 0 15-6.7 15-15v-62C272 392.4 251.8 354.8 220.8 330z"/>
  <path d="M152 165v-43.5c-4.9-0.7-9.9-1.5-15-1.5 -58 0-107 47-107 105s49 105 107 105c43.1 0 80-26 96.2-63.2C186.8 256 152 214.7 152 165z"/>
</svg>
