<svg xmlns="http://www.w3.org/2000/svg" viewBox="0 0 95 95">
  <path d="M47.5 21.7c6 0 10.8-4.9 10.8-10.8S53.5 0 47.5 0C41.5 0 36.7 4.9 36.7 10.8S41.5 21.7 47.5 21.7z"/>
  <path d="M82.2 10.8L80.9 8.9c-0.9-1.3-2.9-1.7-4.2-0.7l-22.4 16H40.6L18.3 8.2c-0.5-0.4-1.1-0.6-1.7-0.6 -1 0-1.9 0.5-2.4 1.3l-1.3 1.9c-0.9 1.4-0.6 3.2 0.7 4.2L36.1 31.1v26.1L30.6 70.2c-0.6 1.5-0.8 4-0.3 5.6l4.6 15.8c0.5 1.8 2.4 3.2 4.3 3.2h3.2c1 0 1.9-0.4 2.4-1.1 0.5-0.7 0.7-1.7 0.4-2.6l-4.6-15.8c-0.3-1.1-0.2-3.1 0.3-4.1l4.9-10.2h3.4l5 10.4c0.5 1.1 0.7 3 0.3 4.1L49.9 91.2c-0.3 1-0.1 1.9 0.4 2.6 0.5 0.7 1.4 1.1 2.4 1.1h3.2c1.9 0 3.8-1.4 4.3-3.2l4.6-15.8c0.5-1.6 0.3-4-0.4-5.6l-5.5-12.3c0-0.1 0-0.1 0-0.2V31.1l22.6-16.1C82.8 14 83.1 12.1 82.2 10.8z"/>
</svg>
